<mxfile host="app.diagrams.net" modified="2023-10-13T15:23:01.046Z" agent="Mozilla/5.0 (Windows NT 10.0; Win64; x64) AppleWebKit/537.36 (KHTML, like Gecko) Chrome/117.0.0.0 Safari/537.36" etag="vNvUG7D3ikQ44ep3fPxQ" version="22.0.4" type="github">
  <diagram name="Page-1" id="a3u11_Re7s1oE9KVrdOR">
    <mxGraphModel dx="2074" dy="1058" grid="1" gridSize="10" guides="1" tooltips="1" connect="1" arrows="1" fold="1" page="1" pageScale="1" pageWidth="850" pageHeight="1100" background="#BBE7DB" math="0" shadow="0">
      <root>
        <mxCell id="0" />
        <mxCell id="1" parent="0" />
        <mxCell id="0585WQPyN64nNXPCYBgR-1" value="&lt;font style=&quot;font-size: 18px;&quot; color=&quot;#080808&quot;&gt;&lt;b&gt;&lt;i&gt;CI/CD Pipeline&lt;/i&gt;&lt;/b&gt;&lt;/font&gt;" style="rounded=0;whiteSpace=wrap;html=1;fillColor=#dae8fc;strokeColor=#6c8ebf;" parent="1" vertex="1">
          <mxGeometry width="850" height="60" as="geometry" />
        </mxCell>
        <mxCell id="0585WQPyN64nNXPCYBgR-2" value="" style="outlineConnect=0;dashed=0;verticalLabelPosition=bottom;verticalAlign=top;align=center;html=1;shape=mxgraph.aws3.data_pipeline;fillColor=#F58534;gradientColor=none;" parent="1" vertex="1">
          <mxGeometry width="67.5" height="60" as="geometry" />
        </mxCell>
        <mxCell id="0585WQPyN64nNXPCYBgR-3" value="" style="outlineConnect=0;dashed=0;verticalLabelPosition=bottom;verticalAlign=top;align=center;html=1;shape=mxgraph.aws3.data_pipeline;fillColor=#F58534;gradientColor=none;" parent="1" vertex="1">
          <mxGeometry x="783" width="67.5" height="60" as="geometry" />
        </mxCell>
        <mxCell id="0585WQPyN64nNXPCYBgR-4" value="" style="outlineConnect=0;dashed=0;verticalLabelPosition=bottom;verticalAlign=top;align=center;html=1;shape=mxgraph.aws3.android;fillColor=#205E00;gradientColor=none;" parent="1" vertex="1">
          <mxGeometry x="2.200000000000003" y="440" width="40" height="50" as="geometry" />
        </mxCell>
        <mxCell id="0585WQPyN64nNXPCYBgR-5" value="" style="outlineConnect=0;dashed=0;verticalLabelPosition=bottom;verticalAlign=top;align=center;html=1;shape=mxgraph.aws3.android;fillColor=#FFD44F;gradientColor=none;" parent="1" vertex="1">
          <mxGeometry x="2.200000000000003" y="388" width="40" height="50" as="geometry" />
        </mxCell>
        <mxCell id="0585WQPyN64nNXPCYBgR-6" value="" style="image;sketch=0;aspect=fixed;html=1;points=[];align=center;fontSize=12;image=img/lib/mscae/Person.svg;" parent="1" vertex="1">
          <mxGeometry x="20" y="500" width="22.2" height="30" as="geometry" />
        </mxCell>
        <mxCell id="0585WQPyN64nNXPCYBgR-8" value="&lt;font style=&quot;font-size: 14px;&quot;&gt;&lt;b&gt;Developers&lt;/b&gt;&lt;/font&gt;" style="text;html=1;align=center;verticalAlign=middle;resizable=0;points=[];autosize=1;strokeColor=none;fillColor=none;" parent="1" vertex="1">
          <mxGeometry y="530" width="100" height="30" as="geometry" />
        </mxCell>
        <mxCell id="0585WQPyN64nNXPCYBgR-9" value="" style="image;sketch=0;aspect=fixed;html=1;points=[];align=center;fontSize=12;image=img/lib/mscae/Person.svg;" parent="1" vertex="1">
          <mxGeometry x="50" y="500" width="22.2" height="30" as="geometry" />
        </mxCell>
        <mxCell id="0585WQPyN64nNXPCYBgR-11" value="&lt;font style=&quot;font-size: 14px;&quot;&gt;&lt;b&gt;.py&lt;/b&gt;&lt;/font&gt;" style="text;html=1;align=center;verticalAlign=middle;resizable=0;points=[];autosize=1;strokeColor=none;fillColor=none;" parent="1" vertex="1">
          <mxGeometry x="41.099999999999994" y="398" width="40" height="30" as="geometry" />
        </mxCell>
        <mxCell id="0585WQPyN64nNXPCYBgR-12" value="" style="shape=image;html=1;verticalAlign=top;verticalLabelPosition=bottom;labelBackgroundColor=#ffffff;imageAspect=0;aspect=fixed;image=https://cdn4.iconfinder.com/data/icons/ionicons/512/icon-social-github-128.png" parent="1" vertex="1">
          <mxGeometry x="190" y="300" width="70" height="70" as="geometry" />
        </mxCell>
        <mxCell id="0585WQPyN64nNXPCYBgR-14" value="&lt;p style=&quot;line-height: 180%;&quot;&gt;&lt;font style=&quot;font-size: 14px;&quot;&gt;&lt;b&gt;.js&lt;/b&gt;&lt;/font&gt;&lt;/p&gt;" style="text;html=1;align=center;verticalAlign=middle;resizable=0;points=[];autosize=1;strokeColor=none;fillColor=none;" parent="1" vertex="1">
          <mxGeometry x="41.1" y="435" width="40" height="60" as="geometry" />
        </mxCell>
        <mxCell id="0585WQPyN64nNXPCYBgR-15" value="&lt;font style=&quot;font-size: 14px;&quot;&gt;&lt;b&gt;GitHub&lt;/b&gt;&lt;/font&gt;" style="text;html=1;align=center;verticalAlign=middle;resizable=0;points=[];autosize=1;strokeColor=none;fillColor=none;" parent="1" vertex="1">
          <mxGeometry x="195" y="378" width="70" height="30" as="geometry" />
        </mxCell>
        <mxCell id="0585WQPyN64nNXPCYBgR-16" value="" style="whiteSpace=wrap;html=1;aspect=fixed;fillColor=none;" parent="1" vertex="1">
          <mxGeometry y="380" width="115" height="115" as="geometry" />
        </mxCell>
        <mxCell id="0585WQPyN64nNXPCYBgR-19" value="" style="endArrow=classic;html=1;rounded=0;edgeStyle=orthogonalEdgeStyle;entryX=-0.014;entryY=0.405;entryDx=0;entryDy=0;entryPerimeter=0;" parent="1" target="0585WQPyN64nNXPCYBgR-12" edge="1">
          <mxGeometry width="50" height="50" relative="1" as="geometry">
            <mxPoint x="50" y="378" as="sourcePoint" />
            <mxPoint x="50" y="330" as="targetPoint" />
          </mxGeometry>
        </mxCell>
        <mxCell id="0585WQPyN64nNXPCYBgR-20" value="" style="endArrow=classic;html=1;rounded=0;" parent="1" edge="1">
          <mxGeometry width="50" height="50" relative="1" as="geometry">
            <mxPoint x="260" y="330" as="sourcePoint" />
            <mxPoint x="330" y="330" as="targetPoint" />
          </mxGeometry>
        </mxCell>
        <mxCell id="0585WQPyN64nNXPCYBgR-23" value="" style="editableCssRules=.*;html=1;shape=image;verticalLabelPosition=bottom;labelBackgroundColor=#ffffff;verticalAlign=top;aspect=fixed;imageAspect=0;image=data:image/svg+xml,PHN2ZyB4bWxucz0iaHR0cDovL3d3dy53My5vcmcvMjAwMC9zdmciIHhtbG5zOnY9Imh0dHBzOi8vdmVjdGEuaW8vbmFubyIgd2lkdGg9IjQyNCIgaGVpZ2h0PSI0MjQiIHZpZXdCb3g9IjAgMCA0MjQgNDI0Ij4mI3hhOwk8c3R5bGUgdHlwZT0idGV4dC9jc3MiPiYjeGE7CS5zdDB7ZmlsbDojNDI4NWY0O30mI3hhOwk8L3N0eWxlPiYjeGE7CTxwYXRoIGNsYXNzPSJzdDAiIGQ9Ik00MjQgMHY0MjRIMFYwek0yMTIgOTcuODQ2Yy0zNy44ODQgMC03MC4xNjQgMjMuOTktODIuNDc4IDU3LjYwOGgwbC0zLjQwMy4wMDFjLTQyLjYzNCAwLTc3LjE5NiAzNC41NjItNzcuMTk2IDc3LjE5NnMzNC41NjIgNzcuMTk2IDc3LjE5NiA3Ny4xOTZoMCAxNzEuNzYzYzQyLjYzNCAwIDc3LjE5Ni0zNC41NjIgNzcuMTk2LTc3LjE5NnMtMzQuNTYyLTc3LjE5Ni03Ny4xOTYtNzcuMTk2aDBsLTMuNDAzLS4wMDFDMjgyLjE2NCAxMjEuODM3IDI0OS44ODQgOTcuODQ2IDIxMiA5Ny44NDZ6IiBmaWxsLXJ1bGU9ImV2ZW5vZGQiLz4mI3hhOzwvc3ZnPg==;" parent="1" vertex="1">
          <mxGeometry x="340" y="300" width="60" height="60" as="geometry" />
        </mxCell>
        <mxCell id="0585WQPyN64nNXPCYBgR-25" value="&lt;font style=&quot;font-size: 14px;&quot;&gt;&lt;b&gt;Maven&lt;/b&gt;&lt;/font&gt;" style="text;html=1;align=center;verticalAlign=middle;resizable=0;points=[];autosize=1;strokeColor=none;fillColor=none;" parent="1" vertex="1">
          <mxGeometry x="335" y="370" width="70" height="30" as="geometry" />
        </mxCell>
        <mxCell id="0585WQPyN64nNXPCYBgR-26" value="&lt;b&gt;build&lt;/b&gt;" style="text;html=1;align=center;verticalAlign=middle;resizable=0;points=[];autosize=1;strokeColor=none;fillColor=none;" parent="1" vertex="1">
          <mxGeometry x="345" y="315" width="50" height="30" as="geometry" />
        </mxCell>
        <mxCell id="0585WQPyN64nNXPCYBgR-27" value="" style="endArrow=classic;html=1;rounded=0;" parent="1" edge="1">
          <mxGeometry width="50" height="50" relative="1" as="geometry">
            <mxPoint x="395" y="300" as="sourcePoint" />
            <mxPoint x="445" y="250" as="targetPoint" />
          </mxGeometry>
        </mxCell>
        <mxCell id="0585WQPyN64nNXPCYBgR-28" value="" style="sketch=0;points=[[0,0,0],[0.25,0,0],[0.5,0,0],[0.75,0,0],[1,0,0],[0,1,0],[0.25,1,0],[0.5,1,0],[0.75,1,0],[1,1,0],[0,0.25,0],[0,0.5,0],[0,0.75,0],[1,0.25,0],[1,0.5,0],[1,0.75,0]];outlineConnect=0;fontColor=#232F3E;fillColor=#ED7100;strokeColor=#ffffff;dashed=0;verticalLabelPosition=bottom;verticalAlign=top;align=center;html=1;fontSize=12;fontStyle=0;aspect=fixed;shape=mxgraph.aws4.resourceIcon;resIcon=mxgraph.aws4.nice_dcv;" parent="1" vertex="1">
          <mxGeometry x="440" y="180" width="68" height="68" as="geometry" />
        </mxCell>
        <mxCell id="0585WQPyN64nNXPCYBgR-31" value="&lt;b&gt;&lt;font style=&quot;font-size: 14px;&quot;&gt;NEXUS&lt;br&gt;Artifact&lt;br&gt;&lt;/font&gt;&lt;/b&gt;" style="text;html=1;align=center;verticalAlign=middle;resizable=0;points=[];autosize=1;strokeColor=none;fillColor=none;" parent="1" vertex="1">
          <mxGeometry x="440" y="250" width="70" height="50" as="geometry" />
        </mxCell>
        <mxCell id="0585WQPyN64nNXPCYBgR-32" value="" style="endArrow=classic;html=1;rounded=0;" parent="1" edge="1">
          <mxGeometry width="50" height="50" relative="1" as="geometry">
            <mxPoint x="510" y="210" as="sourcePoint" />
            <mxPoint x="680" y="210" as="targetPoint" />
          </mxGeometry>
        </mxCell>
        <mxCell id="0585WQPyN64nNXPCYBgR-33" value="&lt;b&gt;&lt;font style=&quot;font-size: 13px;&quot;&gt;Docker Image&lt;/font&gt;&lt;/b&gt;" style="text;html=1;align=center;verticalAlign=middle;resizable=0;points=[];autosize=1;strokeColor=none;fillColor=none;" parent="1" vertex="1">
          <mxGeometry x="535" y="180" width="110" height="30" as="geometry" />
        </mxCell>
        <mxCell id="0585WQPyN64nNXPCYBgR-34" value="Amazon ECR" style="sketch=0;outlineConnect=0;fontColor=#232F3E;gradientColor=none;strokeColor=#ffffff;fillColor=#232F3E;dashed=0;verticalLabelPosition=middle;verticalAlign=bottom;align=center;html=1;whiteSpace=wrap;fontSize=10;fontStyle=1;spacing=3;shape=mxgraph.aws4.productIcon;prIcon=mxgraph.aws4.ecr;" parent="1" vertex="1">
          <mxGeometry x="680" y="170" width="80" height="100" as="geometry" />
        </mxCell>
        <mxCell id="0585WQPyN64nNXPCYBgR-35" value="" style="endArrow=classic;html=1;rounded=0;" parent="1" target="0585WQPyN64nNXPCYBgR-36" edge="1">
          <mxGeometry width="50" height="50" relative="1" as="geometry">
            <mxPoint x="710" y="268" as="sourcePoint" />
            <mxPoint x="590" y="390" as="targetPoint" />
          </mxGeometry>
        </mxCell>
        <mxCell id="0585WQPyN64nNXPCYBgR-36" value="" style="rounded=0;whiteSpace=wrap;html=1;fillColor=#FC9D53;strokeColor=#FC9D53;" parent="1" vertex="1">
          <mxGeometry x="530" y="360" width="150" height="90" as="geometry" />
        </mxCell>
        <mxCell id="0585WQPyN64nNXPCYBgR-37" value="&lt;b style=&quot;border-color: var(--border-color);&quot;&gt;&lt;font style=&quot;border-color: var(--border-color); font-size: 11px;&quot;&gt;EC2&lt;/font&gt;&lt;/b&gt;" style="shape=cylinder3;whiteSpace=wrap;html=1;boundedLbl=1;backgroundOutline=1;size=15;" parent="1" vertex="1">
          <mxGeometry x="645" y="381" width="30" height="49" as="geometry" />
        </mxCell>
        <mxCell id="0585WQPyN64nNXPCYBgR-38" value="&#xa;&lt;b style=&quot;border-color: var(--border-color); color: rgb(0, 0, 0); font-family: Helvetica; font-size: 12px; font-style: normal; font-variant-ligatures: normal; font-variant-caps: normal; letter-spacing: normal; orphans: 2; text-align: center; text-indent: 0px; text-transform: none; widows: 2; word-spacing: 0px; -webkit-text-stroke-width: 0px; background-color: rgb(251, 251, 251); text-decoration-thickness: initial; text-decoration-style: initial; text-decoration-color: initial;&quot;&gt;&lt;font style=&quot;border-color: var(--border-color); font-size: 11px;&quot;&gt;EC2&lt;/font&gt;&lt;/b&gt;&#xa;&#xa;" style="shape=cylinder3;whiteSpace=wrap;html=1;boundedLbl=1;backgroundOutline=1;size=15;" parent="1" vertex="1">
          <mxGeometry x="600" y="381.5" width="30" height="47" as="geometry" />
        </mxCell>
        <mxCell id="0585WQPyN64nNXPCYBgR-39" value="" style="shape=cylinder3;whiteSpace=wrap;html=1;boundedLbl=1;backgroundOutline=1;size=15;" parent="1" vertex="1">
          <mxGeometry x="550" y="380" width="30" height="50" as="geometry" />
        </mxCell>
        <mxCell id="0585WQPyN64nNXPCYBgR-41" value="&lt;b&gt;&lt;font style=&quot;font-size: 11px;&quot;&gt;EC2&lt;/font&gt;&lt;/b&gt;" style="text;html=1;align=center;verticalAlign=middle;resizable=0;points=[];autosize=1;strokeColor=none;fillColor=none;" parent="1" vertex="1">
          <mxGeometry x="545" y="398" width="40" height="30" as="geometry" />
        </mxCell>
        <mxCell id="0585WQPyN64nNXPCYBgR-42" value="&lt;font style=&quot;font-size: 15px;&quot;&gt;&lt;b&gt;Terraform&lt;/b&gt;&lt;/font&gt;" style="text;html=1;align=center;verticalAlign=middle;resizable=0;points=[];autosize=1;strokeColor=none;fillColor=none;" parent="1" vertex="1">
          <mxGeometry x="560" y="450" width="90" height="30" as="geometry" />
        </mxCell>
        <mxCell id="0585WQPyN64nNXPCYBgR-43" value="playbook" style="rounded=1;whiteSpace=wrap;html=1;fillColor=#FF5112;" parent="1" vertex="1">
          <mxGeometry x="745" y="388" width="90" height="35" as="geometry" />
        </mxCell>
        <mxCell id="0585WQPyN64nNXPCYBgR-44" value="&lt;b&gt;&lt;font style=&quot;font-size: 14px;&quot;&gt;ANSIBLE&lt;/font&gt;&lt;/b&gt;" style="text;html=1;align=center;verticalAlign=middle;resizable=0;points=[];autosize=1;strokeColor=none;fillColor=none;" parent="1" vertex="1">
          <mxGeometry x="755" y="381.5" width="80" height="30" as="geometry" />
        </mxCell>
        <mxCell id="0585WQPyN64nNXPCYBgR-45" value="" style="endArrow=classic;html=1;rounded=0;" parent="1" edge="1">
          <mxGeometry width="50" height="50" relative="1" as="geometry">
            <mxPoint x="740" y="412.5" as="sourcePoint" />
            <mxPoint x="680" y="412.5" as="targetPoint" />
          </mxGeometry>
        </mxCell>
        <mxCell id="0585WQPyN64nNXPCYBgR-51" value="Helm" style="text;html=1;align=center;verticalAlign=middle;resizable=0;points=[];autosize=1;strokeColor=none;fillColor=none;" parent="1" vertex="1">
          <mxGeometry x="685" y="388" width="50" height="30" as="geometry" />
        </mxCell>
      </root>
    </mxGraphModel>
  </diagram>
</mxfile>
